<svg width="1200" height="760" viewBox="0 0 1200 760" fill="none" xmlns="http://www.w3.org/2000/svg" role="img" aria-label="AI Hardware Fit professional table UI preview">
  <rect width="1200" height="760" fill="#F4F6F8"/>

  <rect x="34" y="28" width="1132" height="72" rx="6" fill="#FFFFFF" stroke="#D9E0E7"/>
  <rect x="58" y="45" width="38" height="38" rx="6" fill="#E8F1FB" stroke="#164A7B" stroke-width="3"/>
  <rect x="69" y="56" width="16" height="16" rx="3" fill="#E5F4EE" stroke="#13795B" stroke-width="3"/>
  <text x="116" y="58" font-family="Arial, sans-serif" font-size="12" font-weight="700" fill="#164A7B">AI HARDWARE FIT</text>
  <text x="116" y="84" font-family="Arial, sans-serif" font-size="24" font-weight="700" fill="#18212B">AI 모델 실행 가능성 계산기</text>
  <text x="930" y="70" font-family="Arial, sans-serif" font-size="13" font-weight="700" fill="#667382">계산기</text>
  <text x="994" y="70" font-family="Arial, sans-serif" font-size="13" font-weight="700" fill="#667382">계산 기준</text>
  <text x="1080" y="70" font-family="Arial, sans-serif" font-size="13" font-weight="700" fill="#667382">GitHub</text>

  <rect x="34" y="122" width="1132" height="118" rx="6" fill="#FFFFFF" stroke="#D9E0E7"/>
  <text x="58" y="153" font-family="Arial, sans-serif" font-size="12" font-weight="700" fill="#164A7B">내 실행 환경</text>
  <text x="58" y="183" font-family="Arial, sans-serif" font-size="18" font-weight="700" fill="#18212B">GeForce RTX 4090 24GB · 가용 VRAM 22GB · RAM 64GB · GPU 1개</text>
  <text x="58" y="208" font-family="Arial, sans-serif" font-size="13" fill="#667382">8K · 동시 1명 · llama.cpp / Ollama · 자동 추천</text>
  <rect x="1044" y="154" width="92" height="36" rx="6" fill="#F8FAFC" stroke="#D9E0E7"/>
  <text x="1062" y="177" font-family="Arial, sans-serif" font-size="13" font-weight="700" fill="#18212B">설정 변경</text>

  <line x1="34" y1="240" x2="1166" y2="240" stroke="#D9E0E7"/>
  <g font-family="Arial, sans-serif" font-size="13" font-weight="700">
    <text x="58" y="273" fill="#164A7B">생성형 LLM</text>
    <line x1="58" y1="288" x2="132" y2="288" stroke="#164A7B" stroke-width="2"/>
    <text x="168" y="273" fill="#667382">임베딩</text>
    <text x="246" y="273" fill="#667382">리랭커</text>
    <text x="322" y="273" fill="#667382">OCR</text>
    <text x="378" y="273" fill="#667382">문서 VLM</text>
    <text x="474" y="273" fill="#667382">범용 VLM</text>
  </g>

  <rect x="34" y="300" width="1132" height="414" rx="6" fill="#FFFFFF" stroke="#D9E0E7"/>
  <g font-family="Arial, sans-serif" font-size="13" font-weight="700">
    <text x="58" y="335" fill="#164A7B">전체</text>
    <text x="92" y="335" fill="#18212B">147</text>
    <line x1="58" y1="350" x2="116" y2="350" stroke="#164A7B" stroke-width="2"/>
    <text x="146" y="335" fill="#667382">쾌적 58</text>
    <text x="232" y="335" fill="#667382">잘 돌아감 23</text>
    <text x="348" y="335" fill="#667382">가능 14</text>
    <text x="430" y="335" fill="#667382">조건부 17</text>
    <text x="528" y="335" fill="#667382">부적합 35</text>
  </g>
  <line x1="58" y1="354" x2="1128" y2="354" stroke="#D9E0E7"/>

  <rect x="58" y="374" width="292" height="36" rx="6" fill="#FFFFFF" stroke="#CBD5DF"/>
  <text x="74" y="397" font-family="Arial, sans-serif" font-size="13" fill="#667382">모델명, 제조사, 태그 검색</text>
  <rect x="362" y="374" width="108" height="36" rx="6" fill="#FFFFFF" stroke="#CBD5DF"/>
  <text x="382" y="397" font-family="Arial, sans-serif" font-size="13" fill="#18212B">전체 등급</text>
  <rect x="482" y="374" width="108" height="36" rx="6" fill="#FFFFFF" stroke="#CBD5DF"/>
  <text x="502" y="397" font-family="Arial, sans-serif" font-size="13" fill="#18212B">전체 작업</text>
  <rect x="602" y="374" width="126" height="36" rx="6" fill="#FFFFFF" stroke="#CBD5DF"/>
  <text x="622" y="397" font-family="Arial, sans-serif" font-size="13" fill="#18212B">전체 공급사</text>
  <rect x="740" y="374" width="128" height="36" rx="6" fill="#FFFFFF" stroke="#CBD5DF"/>
  <text x="760" y="397" font-family="Arial, sans-serif" font-size="13" fill="#18212B">전체 라이선스</text>
  <rect x="994" y="374" width="96" height="36" rx="6" fill="#FFFFFF" stroke="#CBD5DF"/>
  <text x="1018" y="397" font-family="Arial, sans-serif" font-size="13" fill="#18212B">추천순</text>
  <rect x="1100" y="374" width="28" height="36" rx="6" fill="#E8F1FB" stroke="#164A7B"/>
  <text x="1110" y="397" font-family="Arial, sans-serif" font-size="13" font-weight="700" fill="#164A7B">≡</text>

  <text x="58" y="440" font-family="Arial, sans-serif" font-size="11" font-weight="700" fill="#667382">상태</text>
  <text x="146" y="440" font-family="Arial, sans-serif" font-size="11" font-weight="700" fill="#667382">모델</text>
  <text x="474" y="440" font-family="Arial, sans-serif" font-size="11" font-weight="700" fill="#667382">공급사</text>
  <text x="640" y="440" font-family="Arial, sans-serif" font-size="11" font-weight="700" fill="#667382">권장 설정</text>
  <text x="804" y="440" font-family="Arial, sans-serif" font-size="11" font-weight="700" fill="#667382">VRAM</text>
  <text x="914" y="440" font-family="Arial, sans-serif" font-size="11" font-weight="700" fill="#667382">속도</text>
  <text x="1056" y="440" font-family="Arial, sans-serif" font-size="11" font-weight="700" fill="#667382">CTX</text>
  <line x1="58" y1="452" x2="1128" y2="452" stroke="#D9E0E7"/>

  <g font-family="Arial, sans-serif">
    <rect x="58" y="466" width="70" height="26" rx="13" fill="#E5F4EE"/>
    <circle cx="74" cy="479" r="4" fill="#13795B"/>
    <text x="86" y="484" font-size="12" font-weight="700" fill="#13795B">쾌적</text>
    <text x="146" y="478" font-size="14" font-weight="700" fill="#18212B">Qwen3 30B A3B</text>
    <text x="146" y="500" font-size="11" font-weight="700" fill="#667382">대화 · 한국어 · 추론</text>
    <text x="474" y="478" font-size="13" font-weight="700" fill="#2F3C48">Alibaba</text>
    <text x="474" y="500" font-size="11" fill="#667382">Apache 2.0</text>
    <text x="640" y="484" font-size="13" font-weight="700" fill="#2F3C48">Q3_K_M</text>
    <text x="798" y="484" font-size="13" font-weight="700" fill="#2F3C48" text-anchor="end">18.2 GB</text>
    <text x="968" y="484" font-size="13" font-weight="700" fill="#2F3C48" text-anchor="end">175 tok/s</text>
    <text x="1080" y="484" font-size="13" font-weight="700" fill="#2F3C48" text-anchor="end">128K</text>
    <text x="1118" y="484" font-size="18" fill="#667382">›</text>
    <line x1="58" y1="518" x2="1128" y2="518" stroke="#D9E0E7"/>

    <rect x="58" y="536" width="92" height="26" rx="13" fill="#E8F1FB"/>
    <circle cx="74" cy="549" r="4" fill="#164A7B"/>
    <text x="86" y="554" font-size="12" font-weight="700" fill="#164A7B">잘 돌아감</text>
    <text x="146" y="548" font-size="14" font-weight="700" fill="#18212B">EXAONE 4.0 32B</text>
    <text x="146" y="570" font-size="11" font-weight="700" fill="#667382">한국어 · RAG/검색 · 긴 문서</text>
    <text x="474" y="548" font-size="13" font-weight="700" fill="#2F3C48">LG AI</text>
    <text x="474" y="570" font-size="11" fill="#667382">EXAONE NC</text>
    <text x="640" y="554" font-size="13" font-weight="700" fill="#2F3C48">Q4_K_M</text>
    <text x="798" y="554" font-size="13" font-weight="700" fill="#2F3C48" text-anchor="end">20.1 GB</text>
    <text x="968" y="554" font-size="13" font-weight="700" fill="#2F3C48" text-anchor="end">93 tok/s</text>
    <text x="1080" y="554" font-size="13" font-weight="700" fill="#2F3C48" text-anchor="end">128K</text>
    <text x="1118" y="554" font-size="18" fill="#667382">›</text>
    <line x1="58" y1="588" x2="1128" y2="588" stroke="#D9E0E7"/>

    <rect x="58" y="606" width="70" height="26" rx="13" fill="#EEEAFD"/>
    <circle cx="74" cy="619" r="4" fill="#5F4BB6"/>
    <text x="86" y="624" font-size="12" font-weight="700" fill="#5F4BB6">가능</text>
    <text x="146" y="618" font-size="14" font-weight="700" fill="#18212B">A.X 4.0 72B</text>
    <text x="146" y="640" font-size="11" font-weight="700" fill="#667382">한국어 · 추론 · 긴 문서</text>
    <text x="474" y="618" font-size="13" font-weight="700" fill="#2F3C48">SK Telecom</text>
    <text x="474" y="640" font-size="11" fill="#667382">Apache 2.0</text>
    <text x="640" y="624" font-size="13" font-weight="700" fill="#2F3C48">Q2_K</text>
    <text x="798" y="624" font-size="13" font-weight="700" fill="#2F3C48" text-anchor="end">21.9 GB</text>
    <text x="968" y="624" font-size="13" font-weight="700" fill="#2F3C48" text-anchor="end">38 tok/s</text>
    <text x="1080" y="624" font-size="13" font-weight="700" fill="#2F3C48" text-anchor="end">128K</text>
    <text x="1118" y="624" font-size="18" fill="#667382">›</text>
  </g>
</svg>
