<svg width="1200" height="760" viewBox="0 0 1200 760" fill="none" xmlns="http://www.w3.org/2000/svg" role="img" aria-label="LLM GPU Checker list and model detail preview">
  <rect width="1200" height="760" rx="18" fill="#F4F6F8"/>

  <rect x="34" y="28" width="1132" height="72" rx="12" fill="#FFFFFF" stroke="#D9E1EA"/>
  <rect x="58" y="45" width="38" height="38" rx="9" fill="#E8F1FB" stroke="#225EA8" stroke-width="3"/>
  <rect x="69" y="56" width="16" height="16" rx="4" fill="#E5F4EE" stroke="#13795B" stroke-width="3"/>
  <text x="116" y="58" font-family="Arial, sans-serif" font-size="13" font-weight="700" fill="#225EA8">KOREAN LLM HARDWARE FIT</text>
  <text x="116" y="84" font-family="Arial, sans-serif" font-size="27" font-weight="800" fill="#17202A">LLM GPU 실행 가능성 계산기</text>
  <rect x="822" y="45" width="310" height="38" rx="8" fill="#F8FAFC" stroke="#D9E1EA"/>
  <text x="844" y="69" font-family="Arial, sans-serif" font-size="13" fill="#617080">RTX 4090 기준 · 24 GB · 8K · 실행 가능 74개</text>

  <rect x="34" y="122" width="1132" height="92" rx="12" fill="#FFFFFF" stroke="#D9E1EA"/>
  <text x="58" y="153" font-family="Arial, sans-serif" font-size="13" font-weight="800" fill="#225EA8">내 하드웨어</text>
  <text x="58" y="181" font-family="Arial, sans-serif" font-size="24" font-weight="800" fill="#17202A">GeForce RTX 4090 24GB · RAM 64 GB · GPU 1개</text>
  <text x="58" y="204" font-family="Arial, sans-serif" font-size="13" fill="#617080">현재 기준: 8K · 동시 1명 · llama.cpp / Ollama · 자동 추천</text>
  <rect x="848" y="150" width="92" height="34" rx="8" fill="#F8FAFC" stroke="#D9E1EA"/>
  <text x="866" y="172" font-family="Arial, sans-serif" font-size="13" font-weight="800" fill="#225EA8">PC 자동 감지</text>
  <rect x="952" y="150" width="94" height="34" rx="8" fill="#F8FAFC" stroke="#D9E1EA"/>
  <text x="970" y="172" font-family="Arial, sans-serif" font-size="13" font-weight="800" fill="#225EA8">하드웨어 수정</text>
  <rect x="1058" y="150" width="78" height="34" rx="8" fill="#F8FAFC" stroke="#D9E1EA"/>
  <text x="1076" y="172" font-family="Arial, sans-serif" font-size="13" font-weight="800" fill="#225EA8">고급 설정</text>

  <rect x="34" y="238" width="1132" height="476" rx="12" fill="#FFFFFF" stroke="#D9E1EA"/>

  <g font-family="Arial, sans-serif" font-size="13" font-weight="800">
    <rect x="58" y="264" width="82" height="36" rx="8" fill="#E8F1FB" stroke="#225EA8"/>
    <text x="76" y="287" fill="#225EA8">전체 114</text>
    <rect x="150" y="264" width="76" height="36" rx="8" fill="#FFFFFF" stroke="#D9E1EA"/>
    <text x="169" y="287" fill="#617080">쾌적 47</text>
    <rect x="236" y="264" width="106" height="36" rx="8" fill="#FFFFFF" stroke="#D9E1EA"/>
    <text x="255" y="287" fill="#617080">잘 돌아감 21</text>
    <rect x="352" y="264" width="72" height="36" rx="8" fill="#FFFFFF" stroke="#D9E1EA"/>
    <text x="371" y="287" fill="#617080">가능 6</text>
    <rect x="434" y="264" width="82" height="36" rx="8" fill="#FFFFFF" stroke="#D9E1EA"/>
    <text x="452" y="287" fill="#617080">조건부 11</text>
    <rect x="526" y="264" width="86" height="36" rx="8" fill="#FFFFFF" stroke="#D9E1EA"/>
    <text x="544" y="287" fill="#617080">부적합 29</text>
  </g>

  <rect x="58" y="318" width="245" height="40" rx="8" fill="#FFFFFF" stroke="#CBD5DF"/>
  <text x="76" y="344" font-family="Arial, sans-serif" font-size="14" fill="#617080">모델명, 제조사, 태그 검색</text>
  <rect x="316" y="318" width="132" height="40" rx="8" fill="#FFFFFF" stroke="#CBD5DF"/>
  <text x="337" y="344" font-family="Arial, sans-serif" font-size="14" fill="#17202A">전체 등급</text>
  <rect x="460" y="318" width="132" height="40" rx="8" fill="#FFFFFF" stroke="#CBD5DF"/>
  <text x="481" y="344" font-family="Arial, sans-serif" font-size="14" fill="#17202A">전체 작업</text>
  <rect x="604" y="318" width="148" height="40" rx="8" fill="#FFFFFF" stroke="#CBD5DF"/>
  <text x="625" y="344" font-family="Arial, sans-serif" font-size="14" fill="#17202A">전체 공급사</text>
  <rect x="764" y="318" width="150" height="40" rx="8" fill="#FFFFFF" stroke="#CBD5DF"/>
  <text x="785" y="344" font-family="Arial, sans-serif" font-size="14" fill="#17202A">추천순</text>
  <rect x="928" y="318" width="54" height="40" rx="8" fill="#225EA8"/>
  <text x="943" y="344" font-family="Arial, sans-serif" font-size="14" font-weight="800" fill="#FFFFFF">목록</text>
  <rect x="992" y="318" width="54" height="40" rx="8" fill="#F8FAFC" stroke="#D9E1EA"/>
  <text x="1007" y="344" font-family="Arial, sans-serif" font-size="14" font-weight="800" fill="#225EA8">카드</text>

  <text x="58" y="386" font-family="Arial, sans-serif" font-size="12" font-weight="800" fill="#617080">모델</text>
  <text x="626" y="386" font-family="Arial, sans-serif" font-size="12" font-weight="800" fill="#617080">등급</text>
  <text x="720" y="386" font-family="Arial, sans-serif" font-size="12" font-weight="800" fill="#617080">양자화</text>

  <g font-family="Arial, sans-serif">
    <rect x="58" y="402" width="1048" height="78" rx="8" fill="#FFFFFF" stroke="#D9E1EA"/>
    <rect x="78" y="420" width="48" height="22" rx="11" fill="#FFF8DF" stroke="#D6B85B"/>
    <text x="88" y="436" font-size="11" font-weight="800" fill="#7A5600">추천 1</text>
    <text x="136" y="436" font-size="16" font-weight="800" fill="#17202A">Qwen3 30B A3B</text>
    <text x="78" y="459" font-size="12" font-weight="700" fill="#617080">Alibaba · Apache 2.0 · 대화 · 한국어 · 추론</text>
    <rect x="614" y="423" width="78" height="30" rx="15" fill="#E8F1FB"/>
    <text x="630" y="443" font-size="12" font-weight="800" fill="#225EA8">잘 돌아감</text>
    <text x="720" y="443" font-size="14" font-weight="800" fill="#17202A">Q3_K_M</text>

    <rect x="58" y="492" width="1048" height="78" rx="8" fill="#FFFFFF" stroke="#D9E1EA"/>
    <rect x="78" y="510" width="48" height="22" rx="11" fill="#FFF8DF" stroke="#D6B85B"/>
    <text x="88" y="526" font-size="11" font-weight="800" fill="#7A5600">추천 2</text>
    <text x="136" y="526" font-size="16" font-weight="800" fill="#17202A">Qwen3 Coder 30B A3B</text>
    <text x="78" y="549" font-size="12" font-weight="700" fill="#617080">Alibaba · Apache 2.0 · 코딩 · 추론 · 긴 문서</text>
    <rect x="614" y="513" width="78" height="30" rx="15" fill="#E8F1FB"/>
    <text x="630" y="533" font-size="12" font-weight="800" fill="#225EA8">잘 돌아감</text>
    <text x="720" y="533" font-size="14" font-weight="800" fill="#17202A">Q3_K_M</text>

    <rect x="58" y="582" width="1048" height="78" rx="8" fill="#FFFFFF" stroke="#D9E1EA"/>
    <rect x="78" y="600" width="48" height="22" rx="11" fill="#FFF8DF" stroke="#D6B85B"/>
    <text x="88" y="616" font-size="11" font-weight="800" fill="#7A5600">추천 3</text>
    <text x="136" y="616" font-size="16" font-weight="800" fill="#17202A">Qwen3 32B</text>
    <text x="78" y="639" font-size="12" font-weight="700" fill="#617080">Alibaba · Apache 2.0 · 대화 · 한국어 · 추론</text>
    <rect x="614" y="603" width="78" height="30" rx="15" fill="#E8F1FB"/>
    <text x="630" y="623" font-size="12" font-weight="800" fill="#225EA8">잘 돌아감</text>
    <text x="720" y="623" font-size="14" font-weight="800" fill="#17202A">Q2_K</text>
  </g>

  <rect x="782" y="228" width="384" height="486" rx="12" fill="#FFFFFF" stroke="#D9E1EA"/>
  <rect x="782" y="228" width="384" height="486" rx="12" fill="url(#drawerFade)"/>
  <text x="808" y="262" font-family="Arial, sans-serif" font-size="13" font-weight="800" fill="#225EA8">모델 상세</text>
  <text x="808" y="296" font-family="Arial, sans-serif" font-size="24" font-weight="800" fill="#17202A">Qwen2.5 14B Instruct</text>
  <text x="808" y="319" font-family="Arial, sans-serif" font-size="13" fill="#617080">Alibaba · Apache 2.0 · 대화 · 한국어 · 코딩</text>

  <rect x="808" y="344" width="154" height="66" rx="8" fill="#F8FAFC" stroke="#D9E1EA"/>
  <text x="826" y="369" font-family="Arial, sans-serif" font-size="11" font-weight="800" fill="#617080">권장 설정</text>
  <text x="826" y="392" font-family="Arial, sans-serif" font-size="16" font-weight="800" fill="#17202A">Q6_K · 8K</text>
  <rect x="976" y="344" width="154" height="66" rx="8" fill="#F8FAFC" stroke="#D9E1EA"/>
  <text x="994" y="369" font-family="Arial, sans-serif" font-size="11" font-weight="800" fill="#617080">예상 VRAM</text>
  <text x="994" y="392" font-family="Arial, sans-serif" font-size="16" font-weight="800" fill="#17202A">17.8 / 24 GB</text>

  <text x="808" y="448" font-family="Arial, sans-serif" font-size="17" font-weight="800" fill="#17202A">양자화별 비교</text>
  <rect x="808" y="466" width="322" height="38" rx="6" fill="#F8FAFC" stroke="#D9E1EA"/>
  <text x="826" y="490" font-family="Arial, sans-serif" font-size="13" fill="#17202A">Q4_K_M</text>
  <text x="924" y="490" font-family="Arial, sans-serif" font-size="13" fill="#17202A">13.9 GB</text>
  <text x="1012" y="490" font-family="Arial, sans-serif" font-size="13" fill="#17202A">29 tok/s</text>
  <rect x="808" y="510" width="322" height="38" rx="6" fill="#FFFFFF" stroke="#D9E1EA"/>
  <text x="826" y="534" font-family="Arial, sans-serif" font-size="13" fill="#17202A">Q6_K</text>
  <text x="924" y="534" font-family="Arial, sans-serif" font-size="13" fill="#17202A">17.8 GB</text>
  <text x="1012" y="534" font-family="Arial, sans-serif" font-size="13" fill="#17202A">21 tok/s</text>

  <text x="808" y="588" font-family="Arial, sans-serif" font-size="17" font-weight="800" fill="#17202A">VRAM 상세 분석</text>
  <text x="808" y="620" font-family="Arial, sans-serif" font-size="12" font-weight="800" fill="#617080">모델 가중치</text>
  <rect x="808" y="632" width="322" height="9" rx="4.5" fill="#EDF1F5"/>
  <rect x="808" y="632" width="230" height="9" rx="4.5" fill="#225EA8"/>
  <text x="808" y="664" font-family="Arial, sans-serif" font-size="12" font-weight="800" fill="#617080">KV cache</text>
  <rect x="808" y="676" width="322" height="9" rx="4.5" fill="#EDF1F5"/>
  <rect x="808" y="676" width="54" height="9" rx="4.5" fill="#225EA8"/>

  <defs>
    <linearGradient id="drawerFade" x1="782" y1="228" x2="782" y2="714" gradientUnits="userSpaceOnUse">
      <stop stop-color="#FFFFFF"/>
      <stop offset="1" stop-color="#FFFFFF" stop-opacity="0.96"/>
    </linearGradient>
  </defs>
</svg>
