<svg width="1280" height="640" viewBox="0 0 1280 640" fill="none" xmlns="http://www.w3.org/2000/svg" role="img" aria-label="AI Hardware Fit social preview">
  <rect width="1280" height="640" fill="#F4F6F8"/>
  <rect x="64" y="56" width="1152" height="528" rx="8" fill="#FFFFFF" stroke="#D9E0E7" stroke-width="2"/>
  <rect x="104" y="98" width="92" height="92" rx="8" fill="#E8F1FB" stroke="#164A7B" stroke-width="6"/>
  <rect x="130" y="124" width="40" height="40" rx="6" fill="#E5F4EE" stroke="#13795B" stroke-width="6"/>
  <text x="230" y="132" font-family="Arial, sans-serif" font-size="28" font-weight="700" fill="#164A7B">AI Hardware Fit</text>
  <text x="230" y="208" font-family="Arial, sans-serif" font-size="58" font-weight="800" fill="#18212B">AI 모델 실행 가능성 계산기</text>
  <text x="230" y="268" font-family="Arial, sans-serif" font-size="28" font-weight="600" fill="#667382">LLM · Embedding · Reranker · OCR · VLM</text>

  <rect x="104" y="336" width="242" height="116" rx="6" fill="#E5F4EE"/>
  <text x="130" y="382" font-family="Arial, sans-serif" font-size="28" font-weight="800" fill="#13795B">86 GPUs</text>
  <text x="130" y="420" font-family="Arial, sans-serif" font-size="22" fill="#18212B">RTX · A100 · H100</text>
  <rect x="376" y="336" width="242" height="116" rx="6" fill="#E8F1FB"/>
  <text x="402" y="382" font-family="Arial, sans-serif" font-size="28" font-weight="800" fill="#164A7B">286 Models</text>
  <text x="402" y="420" font-family="Arial, sans-serif" font-size="22" fill="#18212B">147 LLMs</text>
  <rect x="648" y="336" width="242" height="116" rx="6" fill="#EEEAFD"/>
  <text x="674" y="382" font-family="Arial, sans-serif" font-size="28" font-weight="800" fill="#5F4BB6">RAG Fit</text>
  <text x="674" y="420" font-family="Arial, sans-serif" font-size="22" fill="#18212B">Batch · Context</text>
  <rect x="920" y="336" width="242" height="116" rx="6" fill="#FFF4D6"/>
  <text x="946" y="382" font-family="Arial, sans-serif" font-size="28" font-weight="800" fill="#9A6700">OCR/VLM</text>
  <text x="946" y="420" font-family="Arial, sans-serif" font-size="22" fill="#18212B">DPI · pages/s</text>

  <rect x="104" y="496" width="1058" height="48" rx="4" fill="#18212B"/>
  <text x="130" y="528" font-family="Arial, sans-serif" font-size="23" font-weight="700" fill="#FFFFFF">jaeseok614.github.io/llm-gpu-checker-ko</text>
</svg>
